<svg xmlns="http://www.w3.org/2000/svg" viewBox="0 0 1170.88 612.89"><defs><style>.a{fill:#a52b00;}.b{fill:#f74c00;}.c{fill:#fff;}</style></defs><title>rustacean-flat-happy</title><path class="a" d="M1009.4,499.16l-12.07-25c.06-.95.11-1.9.11-2.85,0-28.35-29.48-54.47-79.07-75.39V413.3q-7.25-2.88-15.12-5.59V399.6C832.38,374,726.87,357.83,609,357.83c-103,0-196.53,12.38-265.79,32.55v28.25h0V384.44c-71,22.55-115,53.88-115,88.51a43,43,0,0,0,3.22,16.11l-7.23,12.87s-5.79,7.51,4.41,23.36c9,14,54,68.69,77.83,97.34,10.21,14.69,17.14,23.73,17.75,22.86,1-1.39-6.35-29-26.64-60.42-9.47-16.9-20.77-39.28-27.55-55.82,18.94,12,130.23,68,357.23,67.8,232-.23,335.12-72.85,346.43-82.74-4,15.89-17.47,48-28.24,70.64-17.71,32.33-24.12,60.48-23.3,61.87.52.88,6.57-8.44,15.48-23.54,20.73-29.54,60-85.94,67.87-100.3C1014.41,506.69,1009.4,499.16,1009.4,499.16Z" transform="translate(-13.11 -90.14)"/><path class="b" d="M1079.49,499l-79.34-58.45c-.75-2.6-1.49-5.2-2.26-7.78L1023.94,395a14.15,14.15,0,0,0,1.47-13.21,13.23,13.23,0,0,0-10-8.25l-44.07-7.48c-1.71-3.48-3.5-6.92-5.29-10.32l18.51-42.39a14.08,14.08,0,0,0-1-13.25,12.86,12.86,0,0,0-11.34-6.06l-44.72,1.63q-3.47-4.52-7.07-8.94l10.28-45.43a14,14,0,0,0-3.49-12.79A12.74,12.74,0,0,0,915,224.91L871.4,235.61q-4.23-3.74-8.59-7.36l1.57-46.64a13.79,13.79,0,0,0-5.81-11.83,12.62,12.62,0,0,0-12.7-1.07L805.23,188c-3.27-1.88-6.57-3.74-9.89-5.54l-7.18-46a13.57,13.57,0,0,0-7.92-10.42,12.6,12.6,0,0,0-12.65,1.54l-36.23,27.18c-3.57-1.19-7.15-2.32-10.78-3.41L705,107.84a13.22,13.22,0,0,0-9.72-8.62,12.79,12.79,0,0,0-12.11,4.08l-30.5,34.12c-3.69-.42-7.38-.81-11.08-1.13L618,96.61a12.81,12.81,0,0,0-22.26,0L572.2,136.28c-3.7.32-7.41.71-11.09,1.13l-30.5-34.12a12.81,12.81,0,0,0-12.12-4.08,13.23,13.23,0,0,0-9.71,8.62l-15.63,43.59c-3.62,1.09-7.2,2.23-10.78,3.41l-36.22-27.18a12.6,12.6,0,0,0-12.67-1.54,13.58,13.58,0,0,0-7.91,10.42l-7.19,46q-5,2.7-9.89,5.54l-40.63-19.32a12.6,12.6,0,0,0-12.7,1.07,13.8,13.8,0,0,0-5.81,11.83l1.56,46.64q-4.34,3.62-8.59,7.36l-43.55-10.71a12.78,12.78,0,0,0-12.27,3.64A14,14,0,0,0,283,241.34l10.26,45.43q-3.57,4.42-7,8.94l-44.72-1.63a13,13,0,0,0-11.34,6.06,14.14,14.14,0,0,0-1,13.25l18.53,42.39c-1.8,3.4-3.59,6.83-5.31,10.32l-44.06,7.48a13.2,13.2,0,0,0-10,8.25A14.21,14.21,0,0,0,189.76,395l26.07,37.75c-.2.67-.39,1.34-.59,2l-73.7,78.29s-11.3,8.85,5.15,29.65c14.5,18.35,89,91.1,128.27,129.21,16.61,19.35,28,31.33,29.17,30.29,1.88-1.64-8-36.85-40.68-78.15-25.22-37.06-57.94-94-50.27-100.62,0,0,8.73-11.08,26.24-19.06.64.51-.66-.51,0,0h0S609,674.9,951.85,507.3h0c39.16-7,62.87,14,62.87,14,8.18,4.74-13,63.34-30.41,102.14-23.68,44-27.15,78.42-25.14,79.61,1.27.76,9.88-12.35,22.17-33.22,30.32-42.25,87.65-122.8,98.14-142.37C1091.38,505.24,1079.49,499,1079.49,499Z" transform="translate(-13.11 -90.14)"/><path class="b" d="M917.9,477.14s53.18-2.47,123-73.46l9.9-22s-108.42-107.85,60.12-182.29c0,0-14.75,24.11-10.43,117.27,0,0,50.82-17.65,65.71-99.94,0,0,74.12,97.72-80.5,189.38,0,0-72.54,116.29-174.8,105.15Z" transform="translate(-13.11 -90.14)"/><path d="M677,410.17s36.94-40.44,73.87,0c0,0,29,53.93,0,80.89,0,0-47.49,37.75-73.87,0C677,491.06,645.34,461.4,677,410.17Z" transform="translate(-13.11 -90.14)"/><ellipse class="c" cx="685.92" cy="335.03" rx="20.73" ry="28.52"/><path d="M512.15,399.13s63.35-28.05,80.65,34.56c0,0,18.11,73-52,77.1C540.77,510.79,451.32,493.56,512.15,399.13Z" transform="translate(-13.11 -90.14)"/><ellipse class="c" cx="509.48" cy="336.06" rx="21.38" ry="29.41"/><path d="M593.32,536.3l80.8-6.48a47.91,47.91,0,0,1-13.28,22.77s-27.79,30.47-59.67-2.53A40.87,40.87,0,0,1,593.32,536.3Z" transform="translate(-13.11 -90.14)"/><path class="b" d="M269.8,461.52c-.67,0-1.32,0-2,.1-26.23-6-100-25.18-119.46-56.36,0,0,99.23-112.87-55.86-185l18.06,124.88S62.75,313.17,52.43,243.77c0,0-116.42,84.49,51.38,165.47,0,0,15.22,57.19,161.35,102.82l.11-.43a24.86,24.86,0,0,0,4.53.43,25.27,25.27,0,0,0,0-50.54Z" transform="translate(-13.11 -90.14)"/></svg>