/* XPM */
static char *magick[] = {
/* columns rows colors chars-per-pixel */
"24 25 18 1",
"  c Gray0",
". c #121b12",
"X c #2e4928",
"o c #36582e",
"O c #46703c",
"+ c #4e7c44",
"@ c #0d75a5",
"# c #709864",
"$ c #6fa763",
"% c #81b9d1",
"& c #c6d7c3",
"* c #dce6d9",
"= c #dee7dc",
"- c #ebf1ea",
"; c #eef3ed",
": c #f1f5f0",
"> c Gray100",
", c None",
/* pixels */
",,,,,,,,,,,,,,,,,,,,,,,,",
",,,,,,,,,,,,,,,,,,,,,,,,",
",,,,,,,,,,,,,,,,,,,,,,,,",
",,,,,,,,,,,,,,     ,,,,,",
",,,,,,,,,,,,, XX+++ ,,,,",
",,,,,,,,,,,,,,     ,,,,,",
",,,,,,,,,,,,,, :&# ,,,,,",
",,,,,,,,,,,,,, :&# ,,,,,",
",,,,,,,,,,,,,, :&# ,,,,,",
",,,,,,,,,,,,,, :&# ,,,,,",
",,,, ,,,,,,,,,     ,,,,,",
",,,,           :&# ,,,,,",
",,, X :::::::::&&# ,,,,,",
",,, + &&&&&&&&&&#  ,,,,,",
",,, + ##########  ,,,,,,",
",,,,             , ,,,,,",
",,,, ,,,,,,,,,,,,, ,,,,,",
",,,,,,,,,,,,,,,,, % ,,,,",
",,,,,,,,,,,,,,,,, % ,,,,",
",,,,,,,,,,,,,,,,, % ,,,,",
",,,,,,,,,,,,,,,,, @ ,,,,",
",,,,,,,,,,,,,,,,, @ ,,,,",
",,,,,,,,,,,,,,,,,, ,,,,,",
",,,,,,,,,,,,,,,,,,,,,,,,",
",,,,,,,,,,,,,,,,,,,,,,,,"
};
